<svg width="35" height="35" viewBox="0 0 35 35" fill="none" xmlns="http://www.w3.org/2000/svg">
<rect x="0.179153" y="0.5" width="34" height="34" rx="9" fill="#1A1F16"/>
<path d="M14.3667 24.25C14.988 24.25 15.4917 23.7463 15.4917 23.125C15.4917 22.5037 14.988 22 14.3667 22C13.7453 22 13.2417 22.5037 13.2417 23.125C13.2417 23.7463 13.7453 24.25 14.3667 24.25Z" fill="white"/>
<path d="M22.2417 24.25C22.863 24.25 23.3667 23.7463 23.3667 23.125C23.3667 22.5037 22.863 22 22.2417 22C21.6203 22 21.1167 22.5037 21.1167 23.125C21.1167 23.7463 21.6203 24.25 22.2417 24.25Z" fill="white"/>
<path d="M24.2385 12.7462C24.1595 12.6495 24.0599 12.5717 23.9471 12.5183C23.8342 12.4649 23.7109 12.4373 23.586 12.4375H12.8862L12.6707 11.2148C12.6477 11.0845 12.5796 10.9665 12.4783 10.8815C12.3769 10.7965 12.2489 10.75 12.1167 10.75H9.86665C9.71747 10.75 9.5744 10.8093 9.46891 10.9148C9.36342 11.0202 9.30415 11.1633 9.30415 11.3125C9.30415 11.4617 9.36342 11.6048 9.46891 11.7102C9.5744 11.8157 9.71747 11.875 9.86665 11.875H11.6449L13.2501 20.9727C13.2731 21.103 13.3412 21.221 13.4425 21.306C13.5439 21.391 13.6719 21.4375 13.8042 21.4375H22.8042C22.9533 21.4375 23.0964 21.3782 23.2019 21.2727C23.3074 21.1673 23.3667 21.0242 23.3667 20.875C23.3667 20.7258 23.3074 20.5827 23.2019 20.4773C23.0964 20.3718 22.9533 20.3125 22.8042 20.3125H14.276L14.0777 19.1875H22.5735C22.7686 19.1873 22.9576 19.1196 23.1085 18.996C23.2595 18.8725 23.3631 18.7005 23.4018 18.5093L24.4143 13.4468C24.4387 13.3243 24.4356 13.1979 24.4052 13.0767C24.3748 12.9556 24.3179 12.8427 24.2385 12.7462Z" fill="white"/>
</svg>
