<svg width="24" height="25" viewBox="0 0 24 25" fill="none" xmlns="http://www.w3.org/2000/svg">
<path d="M21.3117 8.44062C21.1727 8.3006 21.0073 8.18956 20.825 8.11392C20.6428 8.03829 20.4473 7.99957 20.25 8H17.25V7.25C17.25 5.85761 16.6969 4.52226 15.7123 3.53769C14.7277 2.55312 13.3924 2 12 2C10.6076 2 9.27226 2.55312 8.28769 3.53769C7.30312 4.52226 6.75 5.85761 6.75 7.25V8H3.75C3.35218 8 2.97064 8.15804 2.68934 8.43934C2.40804 8.72064 2.25 9.10218 2.25 9.5V19.625C2.25 21.4531 3.79688 23 5.625 23H18.375C19.2593 23.0003 20.1086 22.6545 20.7413 22.0367C21.0596 21.733 21.3132 21.3679 21.4865 20.9634C21.6599 20.559 21.7495 20.1236 21.75 19.6836V9.5C21.7506 9.30321 21.7122 9.10826 21.637 8.92642C21.5617 8.74458 21.4512 8.57946 21.3117 8.44062ZM8.25 7.25C8.25 6.25544 8.64509 5.30161 9.34835 4.59835C10.0516 3.89509 11.0054 3.5 12 3.5C12.9946 3.5 13.9484 3.89509 14.6517 4.59835C15.3549 5.30161 15.75 6.25544 15.75 7.25V8H8.25V7.25ZM17.25 11.75C17.25 13.1424 16.6969 14.4777 15.7123 15.4623C14.7277 16.4469 13.3924 17 12 17C10.6076 17 9.27226 16.4469 8.28769 15.4623C7.30312 14.4777 6.75 13.1424 6.75 11.75V11C6.75 10.8011 6.82902 10.6103 6.96967 10.4697C7.11032 10.329 7.30109 10.25 7.5 10.25C7.69891 10.25 7.88968 10.329 8.03033 10.4697C8.17098 10.6103 8.25 10.8011 8.25 11V11.75C8.25 12.7446 8.64509 13.6984 9.34835 14.4017C10.0516 15.1049 11.0054 15.5 12 15.5C12.9946 15.5 13.9484 15.1049 14.6517 14.4017C15.3549 13.6984 15.75 12.7446 15.75 11.75V11C15.75 10.8011 15.829 10.6103 15.9697 10.4697C16.1103 10.329 16.3011 10.25 16.5 10.25C16.6989 10.25 16.8897 10.329 17.0303 10.4697C17.171 10.6103 17.25 10.8011 17.25 11V11.75Z" fill="white"/>
</svg>
