<svg width="24" height="25" viewBox="0 0 24 25" fill="none" xmlns="http://www.w3.org/2000/svg">
<path d="M21.3122 8.44062C21.173 8.30063 21.0075 8.18961 20.8252 8.11398C20.6429 8.03835 20.4474 7.99961 20.25 8H17.25V7.25C17.25 5.85761 16.6969 4.52226 15.7123 3.53769C14.7277 2.55312 13.3924 2 12 2C10.6076 2 9.27226 2.55312 8.28769 3.53769C7.30312 4.52226 6.75 5.85761 6.75 7.25V8H3.75C3.35218 8 2.97064 8.15804 2.68934 8.43934C2.40804 8.72064 2.25 9.10218 2.25 9.5V19.625C2.25 21.4531 3.79688 23 5.625 23H18.375C19.2593 23.0003 20.1086 22.6545 20.7413 22.0367C21.0596 21.733 21.3132 21.3679 21.4865 20.9634C21.6599 20.559 21.7495 20.1236 21.75 19.6836V9.5C21.7506 9.30326 21.7122 9.10834 21.6371 8.92652C21.5619 8.74469 21.4515 8.57955 21.3122 8.44062ZM15 16.25H12.75V18.5C12.75 18.6989 12.671 18.8897 12.5303 19.0303C12.3897 19.171 12.1989 19.25 12 19.25C11.8011 19.25 11.6103 19.171 11.4697 19.0303C11.329 18.8897 11.25 18.6989 11.25 18.5V16.25H9C8.80109 16.25 8.61032 16.171 8.46967 16.0303C8.32902 15.8897 8.25 15.6989 8.25 15.5C8.25 15.3011 8.32902 15.1103 8.46967 14.9697C8.61032 14.829 8.80109 14.75 9 14.75H11.25V12.5C11.25 12.3011 11.329 12.1103 11.4697 11.9697C11.6103 11.829 11.8011 11.75 12 11.75C12.1989 11.75 12.3897 11.829 12.5303 11.9697C12.671 12.1103 12.75 12.3011 12.75 12.5V14.75H15C15.1989 14.75 15.3897 14.829 15.5303 14.9697C15.671 15.1103 15.75 15.3011 15.75 15.5C15.75 15.6989 15.671 15.8897 15.5303 16.0303C15.3897 16.171 15.1989 16.25 15 16.25ZM15.75 8H8.25V7.25C8.25 6.25544 8.64509 5.30161 9.34835 4.59835C10.0516 3.89509 11.0054 3.5 12 3.5C12.9946 3.5 13.9484 3.89509 14.6517 4.59835C15.3549 5.30161 15.75 6.25544 15.75 7.25V8Z" fill="white"/>
</svg>
